<?xml version="1.0" standalone="no"?>
<!DOCTYPE svg PUBLIC "-//W3C//DTD SVG 20010904//EN"
 "http://www.w3.org/TR/2001/REC-SVG-20010904/DTD/svg10.dtd">
<svg version="1.0" xmlns="http://www.w3.org/2000/svg"
 width="512.000000pt" height="512.000000pt" viewBox="0 0 512.000000 512.000000"
 preserveAspectRatio="xMidYMid meet">

<g transform="translate(0.000000,512.000000) scale(0.100000,-0.100000)"
fill="#000000" stroke="none">
<path d="M4075 4586 c-249 -58 -429 -209 -568 -474 -28 -54 -52 -99 -53 -101
-2 -2 -28 21 -58 52 -232 236 -511 295 -831 177 l-60 -22 -85 58 c-211 142
-461 222 -768 244 -469 33 -899 -104 -1197 -382 -276 -258 -455 -656 -455
-1016 0 -85 2 -95 25 -117 22 -23 32 -25 120 -25 l95 0 0 -625 0 -625 -23 0
c-37 0 -125 -49 -157 -88 -63 -77 -76 -192 -32 -279 27 -53 91 -109 141 -124
l41 -12 0 -279 0 -278 -50 0 c-62 0 -96 -15 -110 -49 -13 -33 0 -75 29 -90 14
-8 773 -11 2506 -11 l2486 0 24 25 c14 13 25 34 25 47 0 34 -46 214 -70 278
-84 217 -237 432 -419 587 -86 73 -124 82 -160 37 -42 -53 -28 -78 96 -181
101 -83 245 -279 308 -417 31 -68 75 -196 75 -217 0 -5 -445 -9 -1065 -9
l-1065 0 0 275 c0 221 3 275 13 275 38 0 118 34 155 66 104 89 120 232 37 345
-39 54 -119 99 -177 99 l-38 0 0 97 0 96 108 -7 c444 -27 825 -122 1193 -298
139 -66 148 -69 175 -57 35 17 52 59 38 97 -7 21 -33 39 -129 87 -66 34 -163
78 -217 99 -111 43 -96 14 -127 256 -32 244 -41 378 -41 617 0 235 15 423 34
423 25 0 113 49 141 78 17 17 35 32 42 32 14 0 94 -46 162 -93 25 -17 79 -63
121 -103 l76 -73 251 -95 c223 -84 255 -94 281 -85 48 17 57 52 43 174 -27
242 -102 414 -237 548 l-55 54 178 47 c98 26 188 54 199 61 30 19 38 59 19 95
-25 48 -175 191 -260 248 -99 65 -212 110 -320 125 l-83 12 109 148 c60 82
109 155 109 162 0 29 -24 64 -49 74 -107 43 -382 63 -496 37z m331 -149 c3 -3
-44 -72 -104 -154 -106 -142 -113 -150 -169 -173 -150 -61 -293 -175 -404
-322 -33 -43 -64 -78 -69 -78 -26 0 -44 19 -74 79 l-34 66 42 95 c98 223 232
379 385 447 97 43 156 53 294 49 70 -2 130 -6 133 -9z m-2669 -77 c261 -35
470 -116 654 -254 283 -213 468 -546 504 -908 l7 -68 -68 0 -67 0 -75 68
c-151 136 -173 152 -202 152 -23 0 -48 -21 -135 -112 l-107 -113 -25 30 c-14
17 -61 67 -106 113 -110 113 -110 113 -245 -29 l-106 -110 -105 110 c-140 147
-132 147 -271 0 l-106 -111 -105 111 c-134 142 -136 142 -241 34 -42 -43 -89
-94 -107 -113 l-31 -35 -31 35 c-18 19 -65 70 -107 113 -107 110 -95 113 -304
-75 l-75 -68 -68 0 -67 0 7 73 c20 212 95 418 221 608 62 95 239 272 329 331
178 116 381 190 595 217 95 12 346 13 437 1z m1257 -225 c90 -24 193 -83 269
-154 77 -73 177 -213 155 -219 -7 -2 -38 -15 -68 -28 l-56 -25 -74 31 c-91 37
-192 65 -297 80 l-79 12 -37 58 c-21 32 -67 93 -103 135 -36 42 -63 79 -60 83
4 3 37 14 74 23 84 22 200 24 276 4z m1578 -158 c87 -32 166 -79 235 -142 l55
-50 -182 -49 -182 -49 -182 -2 c-123 -2 -203 -8 -250 -19 -47 -10 -73 -12 -81
-6 -7 6 -36 23 -64 39 l-52 28 46 51 c91 101 227 185 351 217 86 22 221 14
306 -18z m-1444 -363 c39 -14 72 -27 72 -28 -1 0 -7 -23 -14 -50 l-13 -48 -74
-24 c-41 -13 -78 -23 -82 -21 -4 1 -23 45 -41 97 -18 52 -36 103 -40 112 -7
15 -3 16 56 2 35 -8 96 -26 136 -40z m420 -24 c52 -32 74 -76 69 -138 -3 -45
-9 -59 -40 -90 -32 -31 -43 -36 -96 -40 -58 -4 -60 -3 -102 35 -38 36 -43 46
-46 94 -4 45 -1 60 19 89 45 66 132 89 196 50z m302 -25 c96 -50 101 -196 8
-253 -33 -20 -106 -30 -120 -16 -4 3 3 27 15 52 22 50 29 141 14 200 -8 31 -8
32 23 32 17 0 44 -7 60 -15z m649 -60 c70 -35 162 -123 206 -195 37 -62 89
-208 99 -282 l7 -47 -173 66 c-158 60 -177 70 -223 116 -67 67 -186 155 -267
197 l-66 34 -4 59 c-3 53 -1 58 20 64 63 15 138 22 237 19 97 -3 117 -6 164
-31z m-1238 -250 l36 -40 -48 -190 c-78 -303 -118 -494 -153 -733 -18 -122
-35 -225 -38 -227 -2 -2 -59 -1 -126 2 l-122 6 0 454 0 453 95 0 c90 0 98 2
122 26 25 26 26 27 21 154 l-5 128 76 26 76 25 15 -22 c8 -12 31 -40 51 -62z
m380 -85 l40 -21 -7 -62 c-4 -34 -8 -63 -9 -65 -4 -4 -249 18 -253 23 -2 2 3
28 12 58 l16 54 61 6 c33 4 68 11 77 17 22 12 17 13 63 -10z m-2980 -120 c141
-148 137 -148 279 2 l106 111 23 -28 c12 -16 58 -66 101 -112 112 -117 116
-117 252 28 l104 110 103 -110 c93 -100 106 -111 138 -111 38 0 34 -3 164 137
l77 82 104 -109 c140 -149 136 -149 279 2 l107 113 79 -71 78 -71 3 -647 2
-646 -155 0 -155 0 0 273 c0 149 -5 292 -11 316 -27 117 -116 229 -224 281
-162 79 -348 48 -476 -79 -66 -67 -105 -145 -119 -238 -5 -37 -10 -177 -10
-310 l0 -243 -560 0 -560 0 0 644 0 644 78 71 c42 39 80 71 83 71 4 0 53 -49
110 -110z m2879 -173 l115 -12 -4 -115 c-2 -63 -4 -116 -5 -117 -1 -1 -67 5
-146 12 -80 8 -155 15 -166 15 l-22 0 24 103 c13 56 26 108 29 115 5 14 24 14
175 -1z m-18 -388 l136 -12 6 -71 c4 -39 9 -92 12 -119 l6 -47 -54 5 c-63 7
-370 35 -379 35 -3 0 2 48 12 108 11 59 19 111 19 116 0 5 24 6 53 3 28 -3
113 -11 189 -18z m-1475 -29 c63 -32 101 -72 131 -138 14 -32 17 -76 17 -312
l0 -275 -263 -3 -263 -2 3 287 c3 258 5 292 22 323 72 137 220 187 353 120z
m1443 -356 c107 -9 198 -20 202 -23 8 -7 28 -133 23 -139 -2 -2 -58 10 -126
27 -68 17 -181 40 -252 53 -99 17 -127 25 -122 36 3 7 5 27 5 44 0 29 1 30 38
24 20 -3 125 -13 232 -22z m-601 -550 c39 -32 49 -80 26 -124 -31 -61 -26 -60
-664 -60 l-580 0 -20 -26 c-26 -33 -27 -65 -2 -95 l19 -24 326 -3 326 -3 0
-274 0 -275 -805 0 -805 0 0 275 0 275 334 0 c322 0 334 1 360 21 30 23 35 72
12 105 -14 18 -35 19 -604 24 -580 5 -591 5 -619 26 -40 30 -52 85 -29 129 10
18 28 38 39 43 15 7 448 11 1339 11 l1316 1 31 -26z m-2339 -609 l0 -275 -90
0 -90 0 0 275 0 275 90 0 90 0 0 -275z m2110 0 l0 -275 -90 0 -90 0 0 275 0
275 90 0 90 0 0 -275z"/>
<path d="M1475 4075 c-22 -21 -25 -33 -25 -103 0 -98 17 -126 75 -126 58 0 75
28 75 126 0 70 -3 82 -25 103 -13 14 -36 25 -50 25 -14 0 -37 -11 -50 -25z"/>
<path d="M1055 3965 c-22 -22 -25 -32 -25 -105 0 -73 3 -83 25 -105 13 -14 36
-25 50 -25 14 0 37 11 50 25 22 22 25 32 25 105 0 73 -3 83 -25 105 -13 14
-36 25 -50 25 -14 0 -37 -11 -50 -25z"/>
<path d="M1895 3965 c-22 -21 -25 -33 -25 -103 0 -91 14 -118 67 -128 26 -5
37 -1 57 19 24 24 26 33 26 107 0 73 -3 83 -25 105 -13 14 -36 25 -50 25 -14
0 -37 -11 -50 -25z"/>
<path d="M642 3807 c-19 -20 -22 -35 -22 -105 0 -95 16 -122 73 -122 58 0 77
32 77 126 0 71 -3 83 -23 102 -31 29 -77 29 -105 -1z"/>
<path d="M2225 3795 c-22 -21 -25 -33 -25 -100 0 -89 8 -109 51 -124 24 -8 37
-7 59 4 36 19 40 31 40 125 0 73 -2 80 -26 99 -35 28 -69 26 -99 -4z"/>
<path d="M679 2647 c-57 -38 -60 -50 -57 -284 l3 -213 33 -32 32 -33 210 -3
c233 -3 254 1 290 61 18 29 20 51 20 232 0 297 2 295 -298 295 -191 0 -200 -1
-233 -23z m371 -272 l0 -145 -140 0 -140 0 0 145 0 145 140 0 140 0 0 -145z"/>
<path d="M1476 1039 c-34 -27 -35 -71 -1 -104 13 -14 36 -25 50 -25 33 0 75
42 75 75 0 33 -41 75 -73 75 -13 0 -36 -9 -51 -21z"/>
<path d="M3319 1530 c-9 -5 -22 -23 -28 -39 -10 -24 -10 -34 3 -60 29 -55 107
-54 130 1 30 71 -40 136 -105 98z"/>
<path d="M3810 1130 c-59 -59 14 -154 89 -116 46 24 54 67 20 110 -26 33 -79
36 -109 6z"/>
</g>
</svg>
