<?xml version="1.0" standalone="no"?>
<!DOCTYPE svg PUBLIC "-//W3C//DTD SVG 20010904//EN"
 "http://www.w3.org/TR/2001/REC-SVG-20010904/DTD/svg10.dtd">
<svg version="1.0" xmlns="http://www.w3.org/2000/svg"
 width="512.000000pt" height="512.000000pt" viewBox="0 0 512.000000 512.000000"
 preserveAspectRatio="xMidYMid meet">

<g transform="translate(0.000000,512.000000) scale(0.100000,-0.100000)"
fill="#000000" stroke="none">
<path d="M1197 4962 c-26 -26 -47 -52 -47 -57 0 -5 32 -42 71 -81 l71 -71 -66
-81 c-262 -326 -387 -773 -331 -1194 86 -648 546 -1175 1174 -1342 52 -14 129
-30 172 -37 l79 -11 0 -83 0 -83 -167 -4 c-164 -3 -169 -4 -235 -35 -37 -17
-87 -50 -112 -74 -63 -57 -114 -163 -123 -251 -5 -62 -4 -68 20 -92 26 -26 27
-26 185 -26 l160 0 -21 -62 c-29 -89 -29 -267 0 -356 l21 -62 -472 2 -471 3
-22 47 c-13 26 -28 79 -35 117 -14 85 -1 185 35 259 l22 47 208 3 207 2 0 80
0 80 -479 0 c-557 0 -505 11 -571 -123 -92 -186 -92 -368 0 -554 57 -116 69
-123 195 -123 l103 0 -20 -62 c-28 -90 -33 -207 -14 -298 18 -89 86 -230 123
-259 l26 -21 1894 0 1894 0 24 25 c33 32 32 68 -5 126 -99 153 -99 345 0 498
37 58 38 94 5 126 -24 24 -28 25 -180 25 l-156 0 -24 55 c-64 144 -49 312 40
442 32 48 32 87 0 118 l-24 25 -461 0 c-382 0 -460 2 -460 14 0 7 -16 45 -35
83 -43 86 -103 144 -193 186 -66 31 -71 32 -235 35 l-168 4 3 96 3 96 55 13
c232 57 456 169 629 312 l63 53 74 -73 74 -74 57 58 58 57 -74 74 -73 74 56
68 c31 37 56 71 56 74 0 7 -114 90 -123 90 -3 0 -27 -27 -53 -60 l-49 -60 -56
56 -57 56 63 86 c282 381 332 882 131 1308 -118 249 -337 475 -581 596 -448
225 -992 166 -1381 -148 l-40 -33 -57 57 -57 57 60 49 c33 26 60 50 60 53 0 9
-83 123 -90 123 -3 0 -37 -25 -74 -56 l-68 -56 -72 71 c-39 39 -76 71 -82 71
-5 0 -31 -22 -57 -48z m1453 -176 c53 -8 108 -20 123 -25 l27 -11 0 -226 0
-226 120 -200 120 -199 0 -160 c0 -88 4 -168 9 -178 6 -9 72 -59 148 -109
l139 -92 108 0 108 0 -7 -27 c-11 -48 -92 -211 -139 -281 -198 -298 -561 -492
-921 -492 -551 0 -1022 399 -1110 941 -15 97 -19 236 -9 302 l7 37 82 0 83 0
33 -137 c46 -188 41 -183 214 -183 l135 0 0 -132 0 -133 80 -120 80 -120 0
-123 c0 -117 1 -124 25 -147 24 -25 26 -25 213 -25 135 0 193 4 205 13 8 6 93
108 186 226 186 232 194 249 146 296 -22 23 -32 25 -120 25 l-95 0 0 175 c0
173 0 176 -25 200 l-24 25 -256 0 -255 0 0 67 c0 65 2 69 61 160 l62 93 154 0
c150 0 155 1 178 25 14 13 25 36 25 50 0 35 -175 382 -199 395 -11 5 -78 10
-150 10 l-131 0 0 124 0 123 68 21 c59 18 124 32 212 46 61 9 203 5 290 -8z
m498 -208 c306 -224 495 -654 446 -1012 l-7 -46 -100 0 -101 0 -93 61 -93 62
0 149 0 150 -120 200 -120 199 0 176 0 175 66 -36 c36 -20 91 -55 122 -78z
m-1199 -239 c20 -17 41 -19 172 -19 l149 0 40 -80 40 -80 -106 0 c-58 0 -113
-4 -123 -9 -9 -6 -59 -72 -109 -148 l-92 -139 0 -92 0 -92 -89 0 -89 0 -33
138 c-45 183 -44 182 -190 182 l-111 0 7 28 c12 48 92 210 142 284 61 92 198
230 288 290 l70 47 5 -146 c5 -137 6 -146 29 -164z m-463 147 c-272 -337 -356
-796 -220 -1205 130 -391 424 -685 815 -815 408 -136 869 -52 1205 220 l40 33
57 -57 57 -58 -69 -54 c-431 -338 -1012 -402 -1510 -169 -284 133 -547 397
-681 681 -95 203 -135 386 -135 618 0 341 105 644 314 902 l46 58 57 -57 57
-57 -33 -40z m994 -1140 c0 -209 3 -217 94 -226 l56 -5 -93 -117 -92 -117
-102 -1 -103 0 0 93 0 92 -80 120 -80 120 0 108 0 107 200 0 200 0 0 -174z
m160 -1341 l0 -85 -80 0 -80 0 0 80 0 79 58 4 c31 2 67 4 80 5 21 2 22 -1 22
-83z m474 -257 c45 -13 146 -105 146 -132 0 -14 -71 -16 -700 -16 -629 0 -700
2 -700 16 0 24 101 119 140 131 52 16 1059 17 1114 1z m-2207 -370 c-29 -89
-29 -267 0 -355 l21 -63 -149 0 c-143 0 -149 1 -163 23 -68 106 -68 328 0 435
14 21 20 22 163 22 l149 0 -21 -62z m1680 0 c-16 -49 -20 -89 -20 -178 0 -89
4 -129 20 -177 l21 -63 -189 0 c-214 0 -199 -6 -235 95 -36 100 -20 281 32
363 14 22 18 22 203 22 l189 0 -21 -62z m1588 45 c-4 -10 -14 -46 -22 -80
l-16 -63 -703 0 c-446 0 -704 4 -704 10 0 17 32 105 46 128 l14 22 696 0 c659
0 696 -1 689 -17z m-22 -365 c8 -35 18 -71 22 -81 7 -16 -28 -17 -691 -15
l-699 3 -21 45 c-12 25 -25 60 -29 78 l-7 32 705 0 704 0 16 -62z m-2926 -320
c-29 -89 -29 -267 0 -355 l21 -63 -149 0 c-169 0 -160 -4 -195 95 -36 100 -20
281 32 363 14 21 20 22 163 22 l149 0 -21 -62z m1120 0 c-29 -89 -29 -267 0
-355 l21 -63 -469 0 -469 0 -14 23 c-34 53 -50 122 -50 217 0 95 16 164 50
218 l14 22 469 0 469 0 -21 -62z m560 0 c-16 -49 -20 -89 -20 -178 0 -89 4
-129 20 -177 l21 -63 -189 0 c-214 0 -199 -6 -235 95 -36 100 -20 281 32 363
14 22 18 22 203 22 l189 0 -21 -62z m1588 45 c-4 -10 -14 -46 -22 -80 l-16
-63 -703 0 c-446 0 -704 4 -704 10 0 17 32 105 46 128 l14 22 696 0 c659 0
696 -1 689 -17z m-22 -365 c8 -35 18 -71 22 -81 7 -16 -28 -17 -691 -15 l-699
3 -21 45 c-12 25 -25 60 -29 78 l-7 32 705 0 704 0 16 -62z"/>
</g>
</svg>
