<?xml version="1.0" standalone="no"?>
<!DOCTYPE svg PUBLIC "-//W3C//DTD SVG 20010904//EN"
 "http://www.w3.org/TR/2001/REC-SVG-20010904/DTD/svg10.dtd">
<svg version="1.0" xmlns="http://www.w3.org/2000/svg"
 width="512.000000pt" height="512.000000pt" viewBox="0 0 512.000000 512.000000"
 preserveAspectRatio="xMidYMid meet">

<g transform="translate(0.000000,512.000000) scale(0.100000,-0.100000)"
fill="#000000" stroke="none">
<path d="M2375 5109 c-382 -52 -680 -226 -795 -463 -21 -45 -42 -91 -45 -103
l-6 -23 1031 0 1031 0 -6 23 c-3 12 -24 58 -45 103 -105 216 -350 376 -683
445 -118 24 -370 34 -482 18z"/>
<path d="M310 4118 c0 -169 36 -266 134 -363 34 -33 78 -69 99 -79 l38 -20
282 282 282 282 -418 0 -417 0 0 -102z"/>
<path d="M1768 4028 l192 -193 192 193 193 192 -385 0 -385 0 193 -192z"/>
<path d="M2968 4028 l192 -193 192 193 193 192 -385 0 -385 0 193 -192z"/>
<path d="M4257 3938 l283 -283 37 20 c21 11 65 47 98 80 99 99 135 195 135
363 l0 102 -417 0 -418 0 282 -282z"/>
<path d="M1165 3810 l-190 -190 385 0 385 0 -190 190 c-104 105 -192 190 -195
190 -3 0 -91 -85 -195 -190z"/>
<path d="M2365 3810 l-190 -190 385 0 385 0 -190 190 c-104 105 -192 190 -195
190 -3 0 -91 -85 -195 -190z"/>
<path d="M3565 3810 l-190 -190 385 0 385 0 -190 190 c-104 105 -192 190 -195
190 -3 0 -91 -85 -195 -190z"/>
<path d="M1674 3273 c23 -162 76 -344 138 -467 87 -174 249 -356 384 -432 l66
-37 -6 -46 c-9 -66 -59 -162 -110 -209 l-43 -40 228 -228 229 -229 229 229
228 228 -43 40 c-51 47 -101 143 -110 209 l-6 46 68 38 c133 74 296 258 382
430 60 121 118 315 137 463 l7 52 -892 0 -892 0 6 -47z"/>
<path d="M782 1955 c-109 -24 -206 -78 -291 -164 -88 -87 -132 -163 -161 -277
-19 -73 -20 -113 -20 -796 l0 -718 300 0 300 0 0 310 0 310 150 0 150 0 0
-310 0 -310 1350 0 1350 0 0 310 0 310 150 0 150 0 0 -310 0 -310 300 0 300 0
0 718 c0 683 -1 723 -20 796 -25 99 -68 180 -136 255 -97 106 -212 169 -355
193 l-71 11 -834 -834 -834 -834 -833 833 c-673 673 -837 832 -857 831 -14 0
-53 -7 -88 -14z"/>
<path d="M1943 1353 l617 -618 617 618 618 617 -210 0 -210 0 -407 -407 -408
-408 -408 408 -407 407 -210 0 -210 0 618 -617z"/>
</g>
</svg>
