<?xml version="1.0" standalone="no"?>
<!DOCTYPE svg PUBLIC "-//W3C//DTD SVG 20010904//EN"
 "http://www.w3.org/TR/2001/REC-SVG-20010904/DTD/svg10.dtd">
<svg version="1.0" xmlns="http://www.w3.org/2000/svg"
 width="512.000000pt" height="512.000000pt" viewBox="0 0 512.000000 512.000000"
 preserveAspectRatio="xMidYMid meet">

<g transform="translate(0.000000,512.000000) scale(0.100000,-0.100000)"
fill="#000000" stroke="none">
<path d="M2148 4351 c5 -36 -20 -85 -55 -108 -22 -14 -55 -19 -170 -22 -142
-3 -144 -4 -136 -25 18 -51 -5 -123 -45 -143 -9 -4 -173 -10 -365 -13 l-347
-5 349 -355 350 -355 0 93 1 92 120 0 120 0 0 180 c0 173 -1 180 -20 180 -16
0 -20 7 -20 30 0 23 4 30 20 30 18 0 20 7 20 60 0 53 -2 60 -20 60 -16 0 -20
7 -20 30 l0 30 245 0 244 0 -132 129 c-73 71 -135 132 -138 135 -3 3 -4 -7 -1
-23z"/>
<path d="M3190 4076 l0 -26 -315 0 -315 0 0 -60 0 -60 315 0 315 0 0 -30 c0
-22 -5 -30 -17 -30 -10 0 -152 0 -315 0 l-298 1 0 -61 0 -60 -55 0 -55 0 0
-120 0 -120 473 -2 472 -3 0 -60 0 -60 -188 -3 -189 -2 7 -68 c3 -37 8 -82 11
-99 l5 -33 279 0 280 0 0 -65 0 -65 -275 0 -276 0 6 -52 c3 -29 8 -72 11 -95
l5 -43 365 0 364 0 0 -65 0 -65 -361 0 -361 0 6 -37 c3 -21 8 -66 12 -100 l6
-63 449 0 450 0 -3 -62 -3 -63 -443 -3 c-416 -2 -443 -3 -438 -20 2 -9 7 -52
11 -94 l7 -78 534 0 534 0 0 -65 0 -65 -528 0 -527 0 9 -100 9 -100 628 0 629
0 0 -65 0 -65 -620 0 -620 0 0 -27 c0 -16 3 -58 7 -95 l6 -68 723 0 724 0 0
-65 0 -65 -716 0 -716 0 6 -88 c4 -48 10 -95 12 -105 5 -16 48 -17 761 -15
l757 3 57 104 c233 420 346 933 309 1406 -17 231 -4 204 -198 398 -170 170
-170 170 -169 134 1 -41 -26 -84 -64 -105 -18 -9 -104 -12 -351 -10 l-328 3
-30 31 c-33 32 -42 77 -27 122 l8 22 -131 0 c-140 0 -174 9 -204 52 -40 57 4
167 67 168 9 0 17 4 17 8 0 9 -489 535 -502 540 -4 2 -8 -8 -8 -22z"/>
<path d="M4410 3446 c0 -15 -5 -36 -10 -47 -10 -18 -7 -19 45 -19 30 0 55 1
55 3 0 2 -20 23 -45 47 l-45 44 0 -28z"/>
<path d="M2560 503 l0 -506 127 7 c550 29 1054 221 1480 565 135 108 423 405
423 435 0 3 -457 6 -1015 6 l-1015 0 0 -507z"/>
<path d="M990 835 l0 -65 340 0 340 0 0 65 0 65 -340 0 -340 0 0 -65z"/>
<path d="M1942 658 l3 -63 248 -3 247 -2 0 65 0 65 -250 0 -251 0 3 -62z"/>
<path d="M1700 380 l0 -70 248 2 247 3 0 65 0 65 -247 3 -248 2 0 -70z"/>
</g>
</svg>
