<?xml version="1.0" standalone="no"?>
<!DOCTYPE svg PUBLIC "-//W3C//DTD SVG 20010904//EN"
 "http://www.w3.org/TR/2001/REC-SVG-20010904/DTD/svg10.dtd">
<svg version="1.0" xmlns="http://www.w3.org/2000/svg"
 width="512.000000pt" height="512.000000pt" viewBox="0 0 512.000000 512.000000"
 preserveAspectRatio="xMidYMid meet">

<g transform="translate(0.000000,512.000000) scale(0.100000,-0.100000)"
fill="#000000" stroke="none">
<path d="M4119 4893 c-9 -2 -375 -399 -813 -882 l-796 -878 -115 -45 -114 -44
-98 13 c-144 20 -278 54 -511 132 -471 157 -680 202 -947 203 -111 1 -158 -3
-228 -20 -281 -69 -470 -250 -493 -471 -19 -176 107 -367 307 -465 163 -80
218 -90 479 -90 246 1 401 15 700 65 145 24 229 32 390 36 182 5 204 4 192 -9
-16 -20 -309 -170 -578 -296 -310 -145 -492 -272 -726 -506 -261 -259 -452
-549 -523 -791 -35 -119 -44 -267 -21 -346 40 -136 147 -234 294 -269 95 -22
374 8 520 56 77 26 245 108 313 155 210 141 479 413 665 674 113 158 198 303
300 515 57 118 116 238 131 265 36 70 162 259 215 323 l43 53 1185 570 c652
314 1194 579 1205 590 19 19 20 35 23 313 l3 293 -26 32 c-19 22 -35 31 -56
31 -17 0 -214 -71 -440 -159 -225 -87 -409 -155 -407 -150 2 4 125 139 273
300 397 429 385 415 385 452 0 18 -7 42 -15 54 -14 21 -659 304 -687 302 -7
-1 -20 -3 -29 -6z m279 -284 c117 -51 211 -95 210 -100 -4 -12 -250 -279 -257
-279 -3 0 -84 63 -179 141 l-173 140 27 32 c67 80 140 156 149 157 6 0 106
-41 223 -91z m-338 -373 l171 -139 -23 -26 c-12 -14 -42 -47 -67 -73 l-44 -46
-173 140 c-96 78 -174 143 -174 145 0 9 125 143 132 140 3 -1 84 -65 178 -141z
m-252 -275 l172 -139 -68 -73 -68 -72 -169 138 c-94 75 -170 141 -170 145 0
11 114 140 123 140 4 0 85 -63 180 -139z m1142 -250 l0 -168 -1102 -531 c-607
-292 -1115 -536 -1129 -542 -25 -11 -30 -9 -70 35 -45 48 -110 87 -167 100
l-33 7 6 71 c5 56 2 90 -14 151 -12 44 -20 80 -19 81 2 1 36 14 77 29 73 26
899 346 1911 739 289 113 528 202 533 200 4 -2 7 -80 7 -172z m-1428 3 c78
-64 144 -120 146 -124 3 -7 -178 -80 -199 -80 -6 0 -57 39 -115 86 -70 57
-102 90 -97 98 7 12 116 135 120 136 0 0 66 -52 145 -116z m-320 -221 c38 -31
65 -59 61 -64 -10 -9 -375 -151 -378 -147 -3 4 237 268 243 268 3 0 36 -25 74
-57z m-2170 -302 c141 -28 334 -84 595 -170 215 -72 362 -111 488 -130 142
-22 132 -17 149 -68 19 -55 21 -136 5 -183 l-12 -33 -58 7 c-231 24 -433 16
-714 -29 -321 -51 -471 -65 -705 -65 -143 -1 -189 3 -251 19 -314 81 -444 322
-274 509 64 72 169 128 295 158 82 20 347 11 482 -15z m1454 -776 c61 -36 64
-56 16 -113 -78 -93 -159 -232 -317 -542 -217 -426 -314 -575 -519 -803 -354
-391 -658 -557 -1023 -557 -118 0 -158 14 -211 74 -46 52 -57 103 -44 206 23
190 127 397 320 636 84 105 264 286 369 374 110 90 275 194 408 255 251 116
611 298 690 349 44 29 100 73 125 99 41 43 49 47 94 47 35 0 62 -7 92 -25z"/>
<path d="M2701 2854 c-83 -35 -53 -154 38 -154 70 0 105 77 61 132 -24 32 -59
39 -99 22z"/>
<path d="M562 3118 c-75 -25 -156 -93 -183 -153 -21 -46 -25 -140 -7 -182 85
-199 421 -251 600 -94 124 109 102 309 -44 394 -103 60 -250 74 -366 35z m220
-158 c53 -15 98 -56 98 -89 0 -30 -37 -69 -83 -89 -68 -29 -193 -8 -244 40
-85 79 81 179 229 138z"/>
<path d="M1635 1730 c-93 -25 -248 -104 -365 -188 -116 -82 -363 -325 -449
-442 -112 -152 -184 -304 -197 -414 -5 -46 -3 -54 21 -80 25 -27 30 -28 90
-23 117 11 291 93 467 222 108 78 337 306 420 419 126 170 218 385 197 460
-19 67 -63 78 -184 46z m-67 -270 c-136 -227 -332 -428 -569 -582 -73 -47
-159 -91 -159 -80 0 18 112 187 180 272 136 171 329 331 525 437 33 17 61 30
63 28 2 -1 -16 -35 -40 -75z"/>
</g>
</svg>
