<?xml version="1.0" standalone="no"?>
<!DOCTYPE svg PUBLIC "-//W3C//DTD SVG 20010904//EN"
 "http://www.w3.org/TR/2001/REC-SVG-20010904/DTD/svg10.dtd">
<svg version="1.0" xmlns="http://www.w3.org/2000/svg"
 width="512.000000pt" height="512.000000pt" viewBox="0 0 512.000000 512.000000"
 preserveAspectRatio="xMidYMid meet">

<g transform="translate(0.000000,512.000000) scale(0.100000,-0.100000)"
fill="#000000" stroke="none">
<path d="M3010 4210 l0 -150 750 0 750 0 0 150 0 150 -750 0 -750 0 0 -150z"/>
<path d="M610 2260 l0 -1500 450 0 450 0 0 1500 0 1500 -450 0 -450 0 0 -1500z
m600 900 l0 -300 -150 0 -150 0 0 300 0 300 150 0 150 0 0 -300z m0 -900 l0
-300 -150 0 -150 0 0 300 0 300 150 0 150 0 0 -300z m0 -900 l0 -300 -150 0
-150 0 0 300 0 300 150 0 150 0 0 -300z"/>
<path d="M2560 3170 l0 -590 315 -157 c173 -87 315 -160 315 -163 0 -3 -142
-76 -315 -163 l-315 -157 0 -590 0 -590 975 0 975 0 0 1500 0 1500 -975 0
-975 0 0 -590z m1650 -10 l0 -300 -150 0 -150 0 0 300 0 300 150 0 150 0 0
-300z m0 -900 l0 -300 -150 0 -150 0 0 300 0 300 150 0 150 0 0 -300z m0 -900
l0 -300 -150 0 -150 0 0 300 0 300 150 0 150 0 0 -300z"/>
</g>
</svg>
